<svg xmlns="http://www.w3.org/2000/svg" version="1.1" xmlns:xlink="http://www.w3.org/1999/xlink" xmlns:svgjs="http://svgjs.dev/svgjs" viewBox="0 0 800 800" opacity="1"><defs><linearGradient gradientTransform="rotate(270)" x1="50%" y1="0%" x2="50%" y2="100%" id="sssquiggly-grad"><stop stop-color="hsla(206, 95%, 16%, 1.00)" stop-opacity="1" offset="0%"></stop><stop stop-color="hsla(24, 100%, 49%, 1.00)" stop-opacity="1" offset="100%"></stop></linearGradient></defs><g stroke-width="3.5" stroke="url(#sssquiggly-grad)" fill="none" stroke-linecap="round" transform="matrix(1,0,0,1,0,-199.63813018798828)"><path d="M10,10C21.805555555555557,19.583333333333336,40.97222222222223,66.41666666666667,66.66666666666667,56C92.36111111111111,45.58333333333333,105.55555555555557,-32.083333333333336,133.33333333333334,-40C161.11111111111111,-47.916666666666664,172.22222222222223,15.916666666666666,200,18C227.77777777777777,20.083333333333332,238.8888888888889,-31.875,266.6666666666667,-30C294.44444444444446,-28.125,305.5555555555556,29.708333333333332,333.33333333333337,27C361.11111111111114,24.291666666666668,372.22222222222223,-51.958333333333336,400,-43C427.77777777777777,-34.041666666666664,438.8888888888889,68.95833333333333,466.6666666666667,70C494.44444444444446,71.04166666666667,505.5555555555556,-36.125,533.3333333333334,-38C561.1111111111111,-39.875,572.2222222222222,56.416666666666664,600,61C627.7777777777778,65.58333333333333,638.8888888888889,-14.958333333333334,666.6666666666667,-16C694.4444444444446,-17.041666666666668,707.6388888888889,50.583333333333336,733.3333333333334,56C759.0277777777778,61.416666666666664,778.1944444444445,19.583333333333336,790,10"></path><path d="M10,10C21.805555555555557,19.583333333333336,40.97222222222223,66.41666666666667,66.66666666666667,56C92.36111111111111,45.58333333333333,105.55555555555557,-32.083333333333336,133.33333333333334,-40C161.11111111111111,-47.916666666666664,172.22222222222223,15.916666666666666,200,18C227.77777777777777,20.083333333333332,238.8888888888889,-31.875,266.6666666666667,-30C294.44444444444446,-28.125,305.5555555555556,29.708333333333332,333.33333333333337,27C361.11111111111114,24.291666666666668,372.22222222222223,-51.958333333333336,400,-43C427.77777777777777,-34.041666666666664,438.8888888888889,68.95833333333333,466.6666666666667,70C494.44444444444446,71.04166666666667,505.5555555555556,-36.125,533.3333333333334,-38C561.1111111111111,-39.875,572.2222222222222,56.416666666666664,600,61C627.7777777777778,65.58333333333333,638.8888888888889,-14.958333333333334,666.6666666666667,-16C694.4444444444446,-17.041666666666668,707.6388888888889,50.583333333333336,733.3333333333334,56C759.0277777777778,61.416666666666664,778.1944444444445,19.583333333333336,790,10" transform="matrix(1,0,0,1,0,1173)"></path><path d="M10,10C21.805555555555557,19.583333333333336,40.97222222222223,66.41666666666667,66.66666666666667,56C92.36111111111111,45.58333333333333,105.55555555555557,-32.083333333333336,133.33333333333334,-40C161.11111111111111,-47.916666666666664,172.22222222222223,15.916666666666666,200,18C227.77777777777777,20.083333333333332,238.8888888888889,-31.875,266.6666666666667,-30C294.44444444444446,-28.125,305.5555555555556,29.708333333333332,333.33333333333337,27C361.11111111111114,24.291666666666668,372.22222222222223,-51.958333333333336,400,-43C427.77777777777777,-34.041666666666664,438.8888888888889,68.95833333333333,466.6666666666667,70C494.44444444444446,71.04166666666667,505.5555555555556,-36.125,533.3333333333334,-38C561.1111111111111,-39.875,572.2222222222222,56.416666666666664,600,61C627.7777777777778,65.58333333333333,638.8888888888889,-14.958333333333334,666.6666666666667,-16C694.4444444444446,-17.041666666666668,707.6388888888889,50.583333333333336,733.3333333333334,56C759.0277777777778,61.416666666666664,778.1944444444445,19.583333333333336,790,10" transform="matrix(1,0,0,1,0,1122)"></path><path d="M10,10C21.805555555555557,19.583333333333336,40.97222222222223,66.41666666666667,66.66666666666667,56C92.36111111111111,45.58333333333333,105.55555555555557,-32.083333333333336,133.33333333333334,-40C161.11111111111111,-47.916666666666664,172.22222222222223,15.916666666666666,200,18C227.77777777777777,20.083333333333332,238.8888888888889,-31.875,266.6666666666667,-30C294.44444444444446,-28.125,305.5555555555556,29.708333333333332,333.33333333333337,27C361.11111111111114,24.291666666666668,372.22222222222223,-51.958333333333336,400,-43C427.77777777777777,-34.041666666666664,438.8888888888889,68.95833333333333,466.6666666666667,70C494.44444444444446,71.04166666666667,505.5555555555556,-36.125,533.3333333333334,-38C561.1111111111111,-39.875,572.2222222222222,56.416666666666664,600,61C627.7777777777778,65.58333333333333,638.8888888888889,-14.958333333333334,666.6666666666667,-16C694.4444444444446,-17.041666666666668,707.6388888888889,50.583333333333336,733.3333333333334,56C759.0277777777778,61.416666666666664,778.1944444444445,19.583333333333336,790,10" transform="matrix(1,0,0,1,0,1071)"></path><path d="M10,10C21.805555555555557,19.583333333333336,40.97222222222223,66.41666666666667,66.66666666666667,56C92.36111111111111,45.58333333333333,105.55555555555557,-32.083333333333336,133.33333333333334,-40C161.11111111111111,-47.916666666666664,172.22222222222223,15.916666666666666,200,18C227.77777777777777,20.083333333333332,238.8888888888889,-31.875,266.6666666666667,-30C294.44444444444446,-28.125,305.5555555555556,29.708333333333332,333.33333333333337,27C361.11111111111114,24.291666666666668,372.22222222222223,-51.958333333333336,400,-43C427.77777777777777,-34.041666666666664,438.8888888888889,68.95833333333333,466.6666666666667,70C494.44444444444446,71.04166666666667,505.5555555555556,-36.125,533.3333333333334,-38C561.1111111111111,-39.875,572.2222222222222,56.416666666666664,600,61C627.7777777777778,65.58333333333333,638.8888888888889,-14.958333333333334,666.6666666666667,-16C694.4444444444446,-17.041666666666668,707.6388888888889,50.583333333333336,733.3333333333334,56C759.0277777777778,61.416666666666664,778.1944444444445,19.583333333333336,790,10" transform="matrix(1,0,0,1,0,1020)"></path><path d="M10,10C21.805555555555557,19.583333333333336,40.97222222222223,66.41666666666667,66.66666666666667,56C92.36111111111111,45.58333333333333,105.55555555555557,-32.083333333333336,133.33333333333334,-40C161.11111111111111,-47.916666666666664,172.22222222222223,15.916666666666666,200,18C227.77777777777777,20.083333333333332,238.8888888888889,-31.875,266.6666666666667,-30C294.44444444444446,-28.125,305.5555555555556,29.708333333333332,333.33333333333337,27C361.11111111111114,24.291666666666668,372.22222222222223,-51.958333333333336,400,-43C427.77777777777777,-34.041666666666664,438.8888888888889,68.95833333333333,466.6666666666667,70C494.44444444444446,71.04166666666667,505.5555555555556,-36.125,533.3333333333334,-38C561.1111111111111,-39.875,572.2222222222222,56.416666666666664,600,61C627.7777777777778,65.58333333333333,638.8888888888889,-14.958333333333334,666.6666666666667,-16C694.4444444444446,-17.041666666666668,707.6388888888889,50.583333333333336,733.3333333333334,56C759.0277777777778,61.416666666666664,778.1944444444445,19.583333333333336,790,10" transform="matrix(1,0,0,1,0,969)"></path><path d="M10,10C21.805555555555557,19.583333333333336,40.97222222222223,66.41666666666667,66.66666666666667,56C92.36111111111111,45.58333333333333,105.55555555555557,-32.083333333333336,133.33333333333334,-40C161.11111111111111,-47.916666666666664,172.22222222222223,15.916666666666666,200,18C227.77777777777777,20.083333333333332,238.8888888888889,-31.875,266.6666666666667,-30C294.44444444444446,-28.125,305.5555555555556,29.708333333333332,333.33333333333337,27C361.11111111111114,24.291666666666668,372.22222222222223,-51.958333333333336,400,-43C427.77777777777777,-34.041666666666664,438.8888888888889,68.95833333333333,466.6666666666667,70C494.44444444444446,71.04166666666667,505.5555555555556,-36.125,533.3333333333334,-38C561.1111111111111,-39.875,572.2222222222222,56.416666666666664,600,61C627.7777777777778,65.58333333333333,638.8888888888889,-14.958333333333334,666.6666666666667,-16C694.4444444444446,-17.041666666666668,707.6388888888889,50.583333333333336,733.3333333333334,56C759.0277777777778,61.416666666666664,778.1944444444445,19.583333333333336,790,10" transform="matrix(1,0,0,1,0,918)"></path><path d="M10,10C21.805555555555557,19.583333333333336,40.97222222222223,66.41666666666667,66.66666666666667,56C92.36111111111111,45.58333333333333,105.55555555555557,-32.083333333333336,133.33333333333334,-40C161.11111111111111,-47.916666666666664,172.22222222222223,15.916666666666666,200,18C227.77777777777777,20.083333333333332,238.8888888888889,-31.875,266.6666666666667,-30C294.44444444444446,-28.125,305.5555555555556,29.708333333333332,333.33333333333337,27C361.11111111111114,24.291666666666668,372.22222222222223,-51.958333333333336,400,-43C427.77777777777777,-34.041666666666664,438.8888888888889,68.95833333333333,466.6666666666667,70C494.44444444444446,71.04166666666667,505.5555555555556,-36.125,533.3333333333334,-38C561.1111111111111,-39.875,572.2222222222222,56.416666666666664,600,61C627.7777777777778,65.58333333333333,638.8888888888889,-14.958333333333334,666.6666666666667,-16C694.4444444444446,-17.041666666666668,707.6388888888889,50.583333333333336,733.3333333333334,56C759.0277777777778,61.416666666666664,778.1944444444445,19.583333333333336,790,10" transform="matrix(1,0,0,1,0,867)"></path><path d="M10,10C21.805555555555557,19.583333333333336,40.97222222222223,66.41666666666667,66.66666666666667,56C92.36111111111111,45.58333333333333,105.55555555555557,-32.083333333333336,133.33333333333334,-40C161.11111111111111,-47.916666666666664,172.22222222222223,15.916666666666666,200,18C227.77777777777777,20.083333333333332,238.8888888888889,-31.875,266.6666666666667,-30C294.44444444444446,-28.125,305.5555555555556,29.708333333333332,333.33333333333337,27C361.11111111111114,24.291666666666668,372.22222222222223,-51.958333333333336,400,-43C427.77777777777777,-34.041666666666664,438.8888888888889,68.95833333333333,466.6666666666667,70C494.44444444444446,71.04166666666667,505.5555555555556,-36.125,533.3333333333334,-38C561.1111111111111,-39.875,572.2222222222222,56.416666666666664,600,61C627.7777777777778,65.58333333333333,638.8888888888889,-14.958333333333334,666.6666666666667,-16C694.4444444444446,-17.041666666666668,707.6388888888889,50.583333333333336,733.3333333333334,56C759.0277777777778,61.416666666666664,778.1944444444445,19.583333333333336,790,10" transform="matrix(1,0,0,1,0,816)"></path><path d="M10,10C21.805555555555557,19.583333333333336,40.97222222222223,66.41666666666667,66.66666666666667,56C92.36111111111111,45.58333333333333,105.55555555555557,-32.083333333333336,133.33333333333334,-40C161.11111111111111,-47.916666666666664,172.22222222222223,15.916666666666666,200,18C227.77777777777777,20.083333333333332,238.8888888888889,-31.875,266.6666666666667,-30C294.44444444444446,-28.125,305.5555555555556,29.708333333333332,333.33333333333337,27C361.11111111111114,24.291666666666668,372.22222222222223,-51.958333333333336,400,-43C427.77777777777777,-34.041666666666664,438.8888888888889,68.95833333333333,466.6666666666667,70C494.44444444444446,71.04166666666667,505.5555555555556,-36.125,533.3333333333334,-38C561.1111111111111,-39.875,572.2222222222222,56.416666666666664,600,61C627.7777777777778,65.58333333333333,638.8888888888889,-14.958333333333334,666.6666666666667,-16C694.4444444444446,-17.041666666666668,707.6388888888889,50.583333333333336,733.3333333333334,56C759.0277777777778,61.416666666666664,778.1944444444445,19.583333333333336,790,10" transform="matrix(1,0,0,1,0,765)"></path><path d="M10,10C21.805555555555557,19.583333333333336,40.97222222222223,66.41666666666667,66.66666666666667,56C92.36111111111111,45.58333333333333,105.55555555555557,-32.083333333333336,133.33333333333334,-40C161.11111111111111,-47.916666666666664,172.22222222222223,15.916666666666666,200,18C227.77777777777777,20.083333333333332,238.8888888888889,-31.875,266.6666666666667,-30C294.44444444444446,-28.125,305.5555555555556,29.708333333333332,333.33333333333337,27C361.11111111111114,24.291666666666668,372.22222222222223,-51.958333333333336,400,-43C427.77777777777777,-34.041666666666664,438.8888888888889,68.95833333333333,466.6666666666667,70C494.44444444444446,71.04166666666667,505.5555555555556,-36.125,533.3333333333334,-38C561.1111111111111,-39.875,572.2222222222222,56.416666666666664,600,61C627.7777777777778,65.58333333333333,638.8888888888889,-14.958333333333334,666.6666666666667,-16C694.4444444444446,-17.041666666666668,707.6388888888889,50.583333333333336,733.3333333333334,56C759.0277777777778,61.416666666666664,778.1944444444445,19.583333333333336,790,10" transform="matrix(1,0,0,1,0,714)"></path><path d="M10,10C21.805555555555557,19.583333333333336,40.97222222222223,66.41666666666667,66.66666666666667,56C92.36111111111111,45.58333333333333,105.55555555555557,-32.083333333333336,133.33333333333334,-40C161.11111111111111,-47.916666666666664,172.22222222222223,15.916666666666666,200,18C227.77777777777777,20.083333333333332,238.8888888888889,-31.875,266.6666666666667,-30C294.44444444444446,-28.125,305.5555555555556,29.708333333333332,333.33333333333337,27C361.11111111111114,24.291666666666668,372.22222222222223,-51.958333333333336,400,-43C427.77777777777777,-34.041666666666664,438.8888888888889,68.95833333333333,466.6666666666667,70C494.44444444444446,71.04166666666667,505.5555555555556,-36.125,533.3333333333334,-38C561.1111111111111,-39.875,572.2222222222222,56.416666666666664,600,61C627.7777777777778,65.58333333333333,638.8888888888889,-14.958333333333334,666.6666666666667,-16C694.4444444444446,-17.041666666666668,707.6388888888889,50.583333333333336,733.3333333333334,56C759.0277777777778,61.416666666666664,778.1944444444445,19.583333333333336,790,10" transform="matrix(1,0,0,1,0,663)"></path><path d="M10,10C21.805555555555557,19.583333333333336,40.97222222222223,66.41666666666667,66.66666666666667,56C92.36111111111111,45.58333333333333,105.55555555555557,-32.083333333333336,133.33333333333334,-40C161.11111111111111,-47.916666666666664,172.22222222222223,15.916666666666666,200,18C227.77777777777777,20.083333333333332,238.8888888888889,-31.875,266.6666666666667,-30C294.44444444444446,-28.125,305.5555555555556,29.708333333333332,333.33333333333337,27C361.11111111111114,24.291666666666668,372.22222222222223,-51.958333333333336,400,-43C427.77777777777777,-34.041666666666664,438.8888888888889,68.95833333333333,466.6666666666667,70C494.44444444444446,71.04166666666667,505.5555555555556,-36.125,533.3333333333334,-38C561.1111111111111,-39.875,572.2222222222222,56.416666666666664,600,61C627.7777777777778,65.58333333333333,638.8888888888889,-14.958333333333334,666.6666666666667,-16C694.4444444444446,-17.041666666666668,707.6388888888889,50.583333333333336,733.3333333333334,56C759.0277777777778,61.416666666666664,778.1944444444445,19.583333333333336,790,10" transform="matrix(1,0,0,1,0,612)"></path><path d="M10,10C21.805555555555557,19.583333333333336,40.97222222222223,66.41666666666667,66.66666666666667,56C92.36111111111111,45.58333333333333,105.55555555555557,-32.083333333333336,133.33333333333334,-40C161.11111111111111,-47.916666666666664,172.22222222222223,15.916666666666666,200,18C227.77777777777777,20.083333333333332,238.8888888888889,-31.875,266.6666666666667,-30C294.44444444444446,-28.125,305.5555555555556,29.708333333333332,333.33333333333337,27C361.11111111111114,24.291666666666668,372.22222222222223,-51.958333333333336,400,-43C427.77777777777777,-34.041666666666664,438.8888888888889,68.95833333333333,466.6666666666667,70C494.44444444444446,71.04166666666667,505.5555555555556,-36.125,533.3333333333334,-38C561.1111111111111,-39.875,572.2222222222222,56.416666666666664,600,61C627.7777777777778,65.58333333333333,638.8888888888889,-14.958333333333334,666.6666666666667,-16C694.4444444444446,-17.041666666666668,707.6388888888889,50.583333333333336,733.3333333333334,56C759.0277777777778,61.416666666666664,778.1944444444445,19.583333333333336,790,10" transform="matrix(1,0,0,1,0,561)"></path><path d="M10,10C21.805555555555557,19.583333333333336,40.97222222222223,66.41666666666667,66.66666666666667,56C92.36111111111111,45.58333333333333,105.55555555555557,-32.083333333333336,133.33333333333334,-40C161.11111111111111,-47.916666666666664,172.22222222222223,15.916666666666666,200,18C227.77777777777777,20.083333333333332,238.8888888888889,-31.875,266.6666666666667,-30C294.44444444444446,-28.125,305.5555555555556,29.708333333333332,333.33333333333337,27C361.11111111111114,24.291666666666668,372.22222222222223,-51.958333333333336,400,-43C427.77777777777777,-34.041666666666664,438.8888888888889,68.95833333333333,466.6666666666667,70C494.44444444444446,71.04166666666667,505.5555555555556,-36.125,533.3333333333334,-38C561.1111111111111,-39.875,572.2222222222222,56.416666666666664,600,61C627.7777777777778,65.58333333333333,638.8888888888889,-14.958333333333334,666.6666666666667,-16C694.4444444444446,-17.041666666666668,707.6388888888889,50.583333333333336,733.3333333333334,56C759.0277777777778,61.416666666666664,778.1944444444445,19.583333333333336,790,10" transform="matrix(1,0,0,1,0,510)"></path><path d="M10,10C21.805555555555557,19.583333333333336,40.97222222222223,66.41666666666667,66.66666666666667,56C92.36111111111111,45.58333333333333,105.55555555555557,-32.083333333333336,133.33333333333334,-40C161.11111111111111,-47.916666666666664,172.22222222222223,15.916666666666666,200,18C227.77777777777777,20.083333333333332,238.8888888888889,-31.875,266.6666666666667,-30C294.44444444444446,-28.125,305.5555555555556,29.708333333333332,333.33333333333337,27C361.11111111111114,24.291666666666668,372.22222222222223,-51.958333333333336,400,-43C427.77777777777777,-34.041666666666664,438.8888888888889,68.95833333333333,466.6666666666667,70C494.44444444444446,71.04166666666667,505.5555555555556,-36.125,533.3333333333334,-38C561.1111111111111,-39.875,572.2222222222222,56.416666666666664,600,61C627.7777777777778,65.58333333333333,638.8888888888889,-14.958333333333334,666.6666666666667,-16C694.4444444444446,-17.041666666666668,707.6388888888889,50.583333333333336,733.3333333333334,56C759.0277777777778,61.416666666666664,778.1944444444445,19.583333333333336,790,10" transform="matrix(1,0,0,1,0,459)"></path><path d="M10,10C21.805555555555557,19.583333333333336,40.97222222222223,66.41666666666667,66.66666666666667,56C92.36111111111111,45.58333333333333,105.55555555555557,-32.083333333333336,133.33333333333334,-40C161.11111111111111,-47.916666666666664,172.22222222222223,15.916666666666666,200,18C227.77777777777777,20.083333333333332,238.8888888888889,-31.875,266.6666666666667,-30C294.44444444444446,-28.125,305.5555555555556,29.708333333333332,333.33333333333337,27C361.11111111111114,24.291666666666668,372.22222222222223,-51.958333333333336,400,-43C427.77777777777777,-34.041666666666664,438.8888888888889,68.95833333333333,466.6666666666667,70C494.44444444444446,71.04166666666667,505.5555555555556,-36.125,533.3333333333334,-38C561.1111111111111,-39.875,572.2222222222222,56.416666666666664,600,61C627.7777777777778,65.58333333333333,638.8888888888889,-14.958333333333334,666.6666666666667,-16C694.4444444444446,-17.041666666666668,707.6388888888889,50.583333333333336,733.3333333333334,56C759.0277777777778,61.416666666666664,778.1944444444445,19.583333333333336,790,10" transform="matrix(1,0,0,1,0,408)"></path><path d="M10,10C21.805555555555557,19.583333333333336,40.97222222222223,66.41666666666667,66.66666666666667,56C92.36111111111111,45.58333333333333,105.55555555555557,-32.083333333333336,133.33333333333334,-40C161.11111111111111,-47.916666666666664,172.22222222222223,15.916666666666666,200,18C227.77777777777777,20.083333333333332,238.8888888888889,-31.875,266.6666666666667,-30C294.44444444444446,-28.125,305.5555555555556,29.708333333333332,333.33333333333337,27C361.11111111111114,24.291666666666668,372.22222222222223,-51.958333333333336,400,-43C427.77777777777777,-34.041666666666664,438.8888888888889,68.95833333333333,466.6666666666667,70C494.44444444444446,71.04166666666667,505.5555555555556,-36.125,533.3333333333334,-38C561.1111111111111,-39.875,572.2222222222222,56.416666666666664,600,61C627.7777777777778,65.58333333333333,638.8888888888889,-14.958333333333334,666.6666666666667,-16C694.4444444444446,-17.041666666666668,707.6388888888889,50.583333333333336,733.3333333333334,56C759.0277777777778,61.416666666666664,778.1944444444445,19.583333333333336,790,10" transform="matrix(1,0,0,1,0,357)"></path><path d="M10,10C21.805555555555557,19.583333333333336,40.97222222222223,66.41666666666667,66.66666666666667,56C92.36111111111111,45.58333333333333,105.55555555555557,-32.083333333333336,133.33333333333334,-40C161.11111111111111,-47.916666666666664,172.22222222222223,15.916666666666666,200,18C227.77777777777777,20.083333333333332,238.8888888888889,-31.875,266.6666666666667,-30C294.44444444444446,-28.125,305.5555555555556,29.708333333333332,333.33333333333337,27C361.11111111111114,24.291666666666668,372.22222222222223,-51.958333333333336,400,-43C427.77777777777777,-34.041666666666664,438.8888888888889,68.95833333333333,466.6666666666667,70C494.44444444444446,71.04166666666667,505.5555555555556,-36.125,533.3333333333334,-38C561.1111111111111,-39.875,572.2222222222222,56.416666666666664,600,61C627.7777777777778,65.58333333333333,638.8888888888889,-14.958333333333334,666.6666666666667,-16C694.4444444444446,-17.041666666666668,707.6388888888889,50.583333333333336,733.3333333333334,56C759.0277777777778,61.416666666666664,778.1944444444445,19.583333333333336,790,10" transform="matrix(1,0,0,1,0,306)"></path><path d="M10,10C21.805555555555557,19.583333333333336,40.97222222222223,66.41666666666667,66.66666666666667,56C92.36111111111111,45.58333333333333,105.55555555555557,-32.083333333333336,133.33333333333334,-40C161.11111111111111,-47.916666666666664,172.22222222222223,15.916666666666666,200,18C227.77777777777777,20.083333333333332,238.8888888888889,-31.875,266.6666666666667,-30C294.44444444444446,-28.125,305.5555555555556,29.708333333333332,333.33333333333337,27C361.11111111111114,24.291666666666668,372.22222222222223,-51.958333333333336,400,-43C427.77777777777777,-34.041666666666664,438.8888888888889,68.95833333333333,466.6666666666667,70C494.44444444444446,71.04166666666667,505.5555555555556,-36.125,533.3333333333334,-38C561.1111111111111,-39.875,572.2222222222222,56.416666666666664,600,61C627.7777777777778,65.58333333333333,638.8888888888889,-14.958333333333334,666.6666666666667,-16C694.4444444444446,-17.041666666666668,707.6388888888889,50.583333333333336,733.3333333333334,56C759.0277777777778,61.416666666666664,778.1944444444445,19.583333333333336,790,10" transform="matrix(1,0,0,1,0,255)"></path><path d="M10,10C21.805555555555557,19.583333333333336,40.97222222222223,66.41666666666667,66.66666666666667,56C92.36111111111111,45.58333333333333,105.55555555555557,-32.083333333333336,133.33333333333334,-40C161.11111111111111,-47.916666666666664,172.22222222222223,15.916666666666666,200,18C227.77777777777777,20.083333333333332,238.8888888888889,-31.875,266.6666666666667,-30C294.44444444444446,-28.125,305.5555555555556,29.708333333333332,333.33333333333337,27C361.11111111111114,24.291666666666668,372.22222222222223,-51.958333333333336,400,-43C427.77777777777777,-34.041666666666664,438.8888888888889,68.95833333333333,466.6666666666667,70C494.44444444444446,71.04166666666667,505.5555555555556,-36.125,533.3333333333334,-38C561.1111111111111,-39.875,572.2222222222222,56.416666666666664,600,61C627.7777777777778,65.58333333333333,638.8888888888889,-14.958333333333334,666.6666666666667,-16C694.4444444444446,-17.041666666666668,707.6388888888889,50.583333333333336,733.3333333333334,56C759.0277777777778,61.416666666666664,778.1944444444445,19.583333333333336,790,10" transform="matrix(1,0,0,1,0,204)"></path><path d="M10,10C21.805555555555557,19.583333333333336,40.97222222222223,66.41666666666667,66.66666666666667,56C92.36111111111111,45.58333333333333,105.55555555555557,-32.083333333333336,133.33333333333334,-40C161.11111111111111,-47.916666666666664,172.22222222222223,15.916666666666666,200,18C227.77777777777777,20.083333333333332,238.8888888888889,-31.875,266.6666666666667,-30C294.44444444444446,-28.125,305.5555555555556,29.708333333333332,333.33333333333337,27C361.11111111111114,24.291666666666668,372.22222222222223,-51.958333333333336,400,-43C427.77777777777777,-34.041666666666664,438.8888888888889,68.95833333333333,466.6666666666667,70C494.44444444444446,71.04166666666667,505.5555555555556,-36.125,533.3333333333334,-38C561.1111111111111,-39.875,572.2222222222222,56.416666666666664,600,61C627.7777777777778,65.58333333333333,638.8888888888889,-14.958333333333334,666.6666666666667,-16C694.4444444444446,-17.041666666666668,707.6388888888889,50.583333333333336,733.3333333333334,56C759.0277777777778,61.416666666666664,778.1944444444445,19.583333333333336,790,10" transform="matrix(1,0,0,1,0,153)"></path><path d="M10,10C21.805555555555557,19.583333333333336,40.97222222222223,66.41666666666667,66.66666666666667,56C92.36111111111111,45.58333333333333,105.55555555555557,-32.083333333333336,133.33333333333334,-40C161.11111111111111,-47.916666666666664,172.22222222222223,15.916666666666666,200,18C227.77777777777777,20.083333333333332,238.8888888888889,-31.875,266.6666666666667,-30C294.44444444444446,-28.125,305.5555555555556,29.708333333333332,333.33333333333337,27C361.11111111111114,24.291666666666668,372.22222222222223,-51.958333333333336,400,-43C427.77777777777777,-34.041666666666664,438.8888888888889,68.95833333333333,466.6666666666667,70C494.44444444444446,71.04166666666667,505.5555555555556,-36.125,533.3333333333334,-38C561.1111111111111,-39.875,572.2222222222222,56.416666666666664,600,61C627.7777777777778,65.58333333333333,638.8888888888889,-14.958333333333334,666.6666666666667,-16C694.4444444444446,-17.041666666666668,707.6388888888889,50.583333333333336,733.3333333333334,56C759.0277777777778,61.416666666666664,778.1944444444445,19.583333333333336,790,10" transform="matrix(1,0,0,1,0,102)"></path><path d="M10,10C21.805555555555557,19.583333333333336,40.97222222222223,66.41666666666667,66.66666666666667,56C92.36111111111111,45.58333333333333,105.55555555555557,-32.083333333333336,133.33333333333334,-40C161.11111111111111,-47.916666666666664,172.22222222222223,15.916666666666666,200,18C227.77777777777777,20.083333333333332,238.8888888888889,-31.875,266.6666666666667,-30C294.44444444444446,-28.125,305.5555555555556,29.708333333333332,333.33333333333337,27C361.11111111111114,24.291666666666668,372.22222222222223,-51.958333333333336,400,-43C427.77777777777777,-34.041666666666664,438.8888888888889,68.95833333333333,466.6666666666667,70C494.44444444444446,71.04166666666667,505.5555555555556,-36.125,533.3333333333334,-38C561.1111111111111,-39.875,572.2222222222222,56.416666666666664,600,61C627.7777777777778,65.58333333333333,638.8888888888889,-14.958333333333334,666.6666666666667,-16C694.4444444444446,-17.041666666666668,707.6388888888889,50.583333333333336,733.3333333333334,56C759.0277777777778,61.416666666666664,778.1944444444445,19.583333333333336,790,10" transform="matrix(1,0,0,1,0,51)"></path></g></svg>